<?xml version="1.0" encoding="utf-8"?>
<!-- Generator: Adobe Illustrator 24.1.1, SVG Export Plug-In . SVG Version: 6.00 Build 0)  -->
<svg version="1.1" id="Calque_1" xmlns="http://www.w3.org/2000/svg" xmlns:xlink="http://www.w3.org/1999/xlink" x="0px" y="0px"
	 viewBox="0 0 118.7 21" style="enable-background:new 0 0 118.7 21;" xml:space="preserve">
<style type="text/css">
	.st0{fill:#FFFFFF;}
</style>
<g>
	<path class="st0" d="M55.4,7c-2.5,0-4.6,2.1-4.5,4.7c0,2,1.3,3.7,3.2,4.3v-1.3c-1.2-0.6-1.9-1.8-1.8-3.1c0-0.1,0-0.1,0-0.2
		c0-1.8,1.5-3.2,3.2-3.2c1.2,0.1,2.3,0.7,2.8,1.7c0.9,1.7,0.4,3.7-1.3,4.7l0,0V16c1.9-0.7,3.1-2.4,3.1-4.4C60,9,57.9,7,55.4,7z"/>
	<path class="st0" d="M14.4,1.5c-5.2-2-11,0.5-13,5.7c-2,5.2,0.5,11,5.7,13v-1.9c-2.8-1.4-4.6-4.3-4.5-7.5c0.1-4.6,3.8-8.2,8.4-8.1
		c4.6,0.1,8.2,3.8,8.1,8.4c0,3-1.7,5.8-4.4,7.2l0,0v1.9c2.5-1.1,4.4-3.1,5.4-5.6C22.1,9.4,19.6,3.5,14.4,1.5z"/>
	<polygon class="st0" points="48.8,7.3 47.4,7.3 44.8,10.7 42.1,7.3 40.6,7.3 44,11.6 40.5,16 42,16 44.7,12.5 47.5,16 47.5,16 
		49,16 45.5,11.5 	"/>
	<path class="st0" d="M33.9,7.2c-1.1,0-2.2,0.2-3.2,0.7L31.1,9c0.8-0.4,1.8-0.6,2.7-0.6c1.7,0,2.6,0.8,2.6,2.4V11
		c-0.9-0.3-1.8-0.4-2.7-0.4c-2.2,0-3.8,1-3.8,2.8c0,1.8,1.7,2.7,3.3,2.7c1.2,0,2.4-0.5,3.2-1.5v0l0,0c0,0,0,0,0,0V16h1.3v-5.3
		C37.6,8.4,36.3,7.2,33.9,7.2z M36.4,12.8c0,1.4-1.3,2.3-3,2.3c-1.2,0-2.2-0.6-2.2-1.7s0.9-1.8,2.6-1.8c0.9,0,1.8,0.1,2.6,0.4h0
		V12.8z"/>
	<rect x="104" y="7" class="st0" width="2.6" height="9"/>
	<rect x="103.9" y="3.7" class="st0" width="2.7" height="2.3"/>
	<path class="st0" d="M113.7,6.9c-1.2,0-2.4,0.2-3.6,0.7l0.7,2c0.8-0.3,1.7-0.5,2.5-0.5c1.3,0,2,0.6,2,1.6v0.1
		c-0.7-0.3-1.5-0.4-2.2-0.4c-2.2,0-3.7,0.9-3.7,2.9v0c0,1.8,1.4,2.8,3.1,2.8c1,0,2.1-0.4,2.8-1.1v1h2.5v-5.2
		C117.8,8.3,116.5,6.9,113.7,6.9z M115.3,12.8c0,0.9-0.8,1.6-2,1.6c0,0-0.1,0-0.1,0c-0.7,0.1-1.2-0.4-1.3-1.1v0
		c0-0.8,0.7-1.2,1.8-1.2c0.6,0,1.1,0.1,1.7,0.3V12.8z"/>
	<path class="st0" d="M73.9,6.8c-1.2,0-2.3,0.5-3,1.4c-0.5-0.9-1.5-1.5-2.6-1.4c-1.1,0-2.1,0.5-2.7,1.4V7H63v9h2.6v-5
		c0-1.2,0.6-1.8,1.6-1.8c1,0,1.5,0.6,1.5,1.8v5h2.6v-5c0-1.2,0.6-1.8,1.6-1.8s1.5,0.6,1.5,1.8h0v5H77v-5.9C77,8,75.8,6.8,73.9,6.8z"
		/>
	<path class="st0" d="M98.1,8.2c-0.7-0.9-1.7-1.4-2.9-1.3C93,6.8,91,8.5,91,11.5v0c0,3,2,4.7,4.2,4.7c1.1,0,2.2-0.5,2.9-1.5V16h2.6
		V3.7h-2.6V8.2z M98.1,11.5L98.1,11.5c0,0.2,0,0.4,0,0.5c-0.1,1.2-1.2,2.1-2.5,2c-1.2-0.1-2.1-1.2-2-2.5v0c0-0.2,0-0.3,0-0.5
		c0.1-1.2,1.2-2.1,2.5-2C97.3,9.1,98.2,10.3,98.1,11.5z"/>
	<path class="st0" d="M84.2,6.8c-0.1,0-0.1,0-0.2,0c-2.5,0.1-4.4,2.2-4.3,4.7v0c0,0.1,0,0.2,0,0.4c0.1,2.5,2.3,4.4,4.8,4.3
		c1.4,0.1,2.8-0.6,3.7-1.7l-1.5-1.3c-0.6,0.6-1.4,0.9-2.2,0.9c-1.1,0.1-2.1-0.7-2.2-1.8l0,0h6.4c0-0.2,0-0.4,0-0.6v0
		C88.6,9.2,87.2,6.8,84.2,6.8z M82.2,10.8c0.1-1.1,0.9-1.9,2-1.9h0c1.1,0,1.9,0.9,1.9,1.9H82.2z"/>
</g>
</svg>
