<?xml version='1.0' encoding='UTF-8'?>
<svg width="82mm" height="82mm" version="1.1" viewBox="0 0 82 82" xmlns="http://www.w3.org/2000/svg"><path d="M8,8H10V10H8zM10,8H12V10H10zM12,8H14V10H12zM14,8H16V10H14zM16,8H18V10H16zM18,8H20V10H18zM20,8H22V10H20zM26,8H28V10H26zM30,8H32V10H30zM32,8H34V10H32zM34,8H36V10H34zM36,8H38V10H36zM40,8H42V10H40zM42,8H44V10H42zM44,8H46V10H44zM46,8H48V10H46zM48,8H50V10H48zM50,8H52V10H50zM52,8H54V10H52zM56,8H58V10H56zM60,8H62V10H60zM62,8H64V10H62zM64,8H66V10H64zM66,8H68V10H66zM68,8H70V10H68zM70,8H72V10H70zM72,8H74V10H72zM8,10H10V12H8zM20,10H22V12H20zM26,10H28V12H26zM30,10H32V12H30zM32,10H34V12H32zM36,10H38V12H36zM44,10H46V12H44zM48,10H50V12H48zM56,10H58V12H56zM60,10H62V12H60zM72,10H74V12H72zM8,12H10V14H8zM12,12H14V14H12zM14,12H16V14H14zM16,12H18V14H16zM20,12H22V14H20zM24,12H26V14H24zM30,12H32V14H30zM34,12H36V14H34zM38,12H40V14H38zM40,12H42V14H40zM44,12H46V14H44zM46,12H48V14H46zM48,12H50V14H48zM50,12H52V14H50zM54,12H56V14H54zM56,12H58V14H56zM60,12H62V14H60zM64,12H66V14H64zM66,12H68V14H66zM68,12H70V14H68zM72,12H74V14H72zM8,14H10V16H8zM12,14H14V16H12zM14,14H16V16H14zM16,14H18V16H16zM20,14H22V16H20zM24,14H26V16H24zM26,14H28V16H26zM28,14H30V16H28zM32,14H34V16H32zM34,14H36V16H34zM38,14H40V16H38zM42,14H44V16H42zM46,14H48V16H46zM48,14H50V16H48zM50,14H52V16H50zM54,14H56V16H54zM60,14H62V16H60zM64,14H66V16H64zM66,14H68V16H66zM68,14H70V16H68zM72,14H74V16H72zM8,16H10V18H8zM12,16H14V18H12zM14,16H16V18H14zM16,16H18V18H16zM20,16H22V18H20zM28,16H30V18H28zM32,16H34V18H32zM34,16H36V18H34zM36,16H38V18H36zM38,16H40V18H38zM44,16H46V18H44zM50,16H52V18H50zM54,16H56V18H54zM56,16H58V18H56zM60,16H62V18H60zM64,16H66V18H64zM66,16H68V18H66zM68,16H70V18H68zM72,16H74V18H72zM8,18H10V20H8zM20,18H22V20H20zM30,18H32V20H30zM32,18H34V20H32zM44,18H46V20H44zM54,18H56V20H54zM60,18H62V20H60zM72,18H74V20H72zM8,20H10V22H8zM10,20H12V22H10zM12,20H14V22H12zM14,20H16V22H14zM16,20H18V22H16zM18,20H20V22H18zM20,20H22V22H20zM24,20H26V22H24zM28,20H30V22H28zM32,20H34V22H32zM36,20H38V22H36zM40,20H42V22H40zM44,20H46V22H44zM48,20H50V22H48zM52,20H54V22H52zM56,20H58V22H56zM60,20H62V22H60zM62,20H64V22H62zM64,20H66V22H64zM66,20H68V22H66zM68,20H70V22H68zM70,20H72V22H70zM72,20H74V22H72zM28,22H30V24H28zM30,22H32V24H30zM34,22H36V24H34zM36,22H38V24H36zM38,22H40V24H38zM42,22H44V24H42zM52,22H54V24H52zM56,22H58V24H56zM14,24H16V26H14zM16,24H18V26H16zM20,24H22V26H20zM22,24H24V26H22zM26,24H28V26H26zM30,24H32V26H30zM34,24H36V26H34zM42,24H44V26H42zM44,24H46V26H44zM48,24H50V26H48zM52,24H54V26H52zM56,24H58V26H56zM66,24H68V26H66zM68,24H70V26H68zM14,26H16V28H14zM18,26H20V28H18zM24,26H26V28H24zM28,26H30V28H28zM32,26H34V28H32zM34,26H36V28H34zM42,26H44V28H42zM50,26H52V28H50zM52,26H54V28H52zM54,26H56V28H54zM58,26H60V28H58zM62,26H64V28H62zM64,26H66V28H64zM68,26H70V28H68zM70,26H72V28H70zM12,28H14V30H12zM18,28H20V30H18zM20,28H22V30H20zM22,28H24V30H22zM24,28H26V30H24zM26,28H28V30H26zM28,28H30V30H28zM30,28H32V30H30zM34,28H36V30H34zM36,28H38V30H36zM40,28H42V30H40zM46,28H48V30H46zM52,28H54V30H52zM54,28H56V30H54zM56,28H58V30H56zM58,28H60V30H58zM62,28H64V30H62zM66,28H68V30H66zM70,28H72V30H70zM72,28H74V30H72zM14,30H16V32H14zM22,30H24V32H22zM28,30H30V32H28zM30,30H32V32H30zM32,30H34V32H32zM36,30H38V32H36zM44,30H46V32H44zM48,30H50V32H48zM50,30H52V32H50zM52,30H54V32H52zM60,30H62V32H60zM62,30H64V32H62zM64,30H66V32H64zM68,30H70V32H68zM70,30H72V32H70zM72,30H74V32H72zM8,32H10V34H8zM12,32H14V34H12zM20,32H22V34H20zM22,32H24V34H22zM24,32H26V34H24zM28,32H30V34H28zM32,32H34V34H32zM34,32H36V34H34zM38,32H40V34H38zM40,32H42V34H40zM42,32H44V34H42zM50,32H52V34H50zM54,32H56V34H54zM56,32H58V34H56zM60,32H62V34H60zM62,32H64V34H62zM64,32H66V34H64zM66,32H68V34H66zM72,32H74V34H72zM8,34H10V36H8zM12,34H14V36H12zM16,34H18V36H16zM22,34H24V36H22zM26,34H28V36H26zM28,34H30V36H28zM40,34H42V36H40zM44,34H46V36H44zM46,34H48V36H46zM48,34H50V36H48zM50,34H52V36H50zM54,34H56V36H54zM58,34H60V36H58zM62,34H64V36H62zM64,34H66V36H64zM68,34H70V36H68zM70,34H72V36H70zM8,36H10V38H8zM12,36H14V38H12zM14,36H16V38H14zM16,36H18V38H16zM20,36H22V38H20zM26,36H28V38H26zM30,36H32V38H30zM32,36H34V38H32zM34,36H36V38H34zM38,36H40V38H38zM48,36H50V38H48zM58,36H60V38H58zM62,36H64V38H62zM10,38H12V40H10zM12,38H14V40H12zM14,38H16V40H14zM16,38H18V40H16zM18,38H20V40H18zM22,38H24V40H22zM24,38H26V40H24zM26,38H28V40H26zM30,38H32V40H30zM32,38H34V40H32zM36,38H38V40H36zM56,38H58V40H56zM58,38H60V40H58zM62,38H64V40H62zM68,38H70V40H68zM72,38H74V40H72zM8,40H10V42H8zM10,40H12V42H10zM14,40H16V42H14zM16,40H18V42H16zM18,40H20V42H18zM20,40H22V42H20zM22,40H24V42H22zM26,40H28V42H26zM48,40H50V42H48zM58,40H60V42H58zM60,40H62V42H60zM62,40H64V42H62zM64,40H66V42H64zM66,40H68V42H66zM70,40H72V42H70zM12,42H14V44H12zM16,42H18V44H16zM18,42H20V44H18zM26,42H28V44H26zM28,42H30V44H28zM32,42H34V44H32zM34,42H36V44H34zM38,42H40V44H38zM40,42H42V44H40zM46,42H48V44H46zM48,42H50V44H48zM52,42H54V44H52zM56,42H58V44H56zM60,42H62V44H60zM62,42H64V44H62zM64,42H66V44H64zM66,42H68V44H66zM70,42H72V44H70zM72,42H74V44H72zM20,44H22V46H20zM22,44H24V46H22zM24,44H26V46H24zM26,44H28V46H26zM30,44H32V46H30zM34,44H36V46H34zM36,44H38V46H36zM40,44H42V46H40zM42,44H44V46H42zM54,44H56V46H54zM58,44H60V46H58zM60,44H62V46H60zM64,44H66V46H64zM66,44H68V46H66zM68,44H70V46H68zM72,44H74V46H72zM8,46H10V48H8zM12,46H14V48H12zM16,46H18V48H16zM18,46H20V48H18zM26,46H28V48H26zM28,46H30V48H28zM30,46H32V48H30zM32,46H34V48H32zM34,46H36V48H34zM38,46H40V48H38zM46,46H48V48H46zM48,46H50V48H48zM52,46H54V48H52zM54,46H56V48H54zM56,46H58V48H56zM60,46H62V48H60zM62,46H64V48H62zM64,46H66V48H64zM66,46H68V48H66zM68,46H70V48H68zM70,46H72V48H70zM10,48H12V50H10zM12,48H14V50H12zM14,48H16V50H14zM16,48H18V50H16zM20,48H22V50H20zM26,48H28V50H26zM30,48H32V50H30zM34,48H36V50H34zM36,48H38V50H36zM42,48H44V50H42zM44,48H46V50H44zM56,48H58V50H56zM58,48H60V50H58zM62,48H64V50H62zM66,48H68V50H66zM8,50H10V52H8zM10,50H12V52H10zM24,50H26V52H24zM30,50H32V52H30zM36,50H38V52H36zM40,50H42V52H40zM46,50H48V52H46zM50,50H52V52H50zM52,50H54V52H52zM58,50H60V52H58zM60,50H62V52H60zM64,50H66V52H64zM66,50H68V52H66zM68,50H70V52H68zM70,50H72V52H70zM8,52H10V54H8zM12,52H14V54H12zM18,52H20V54H18zM20,52H22V54H20zM30,52H32V54H30zM32,52H34V54H32zM44,52H46V54H44zM46,52H48V54H46zM52,52H54V54H52zM56,52H58V54H56zM60,52H62V54H60zM64,52H66V54H64zM70,52H72V54H70zM72,52H74V54H72zM8,54H10V56H8zM14,54H16V56H14zM16,54H18V56H16zM18,54H20V56H18zM22,54H24V56H22zM24,54H26V56H24zM28,54H30V56H28zM34,54H36V56H34zM38,54H40V56H38zM42,54H44V56H42zM46,54H48V56H46zM48,54H50V56H48zM52,54H54V56H52zM62,54H64V56H62zM64,54H66V56H64zM68,54H70V56H68zM70,54H72V56H70zM8,56H10V58H8zM10,56H12V58H10zM12,56H14V58H12zM14,56H16V58H14zM16,56H18V58H16zM18,56H20V58H18zM20,56H22V58H20zM22,56H24V58H22zM24,56H26V58H24zM28,56H30V58H28zM30,56H32V58H30zM32,56H34V58H32zM36,56H38V58H36zM44,56H46V58H44zM56,56H58V58H56zM58,56H60V58H58zM60,56H62V58H60zM62,56H64V58H62zM64,56H66V58H64zM70,56H72V58H70zM72,56H74V58H72zM24,58H26V60H24zM32,58H34V60H32zM34,58H36V60H34zM36,58H38V60H36zM56,58H58V60H56zM64,58H66V60H64zM68,58H70V60H68zM8,60H10V62H8zM10,60H12V62H10zM12,60H14V62H12zM14,60H16V62H14zM16,60H18V62H16zM18,60H20V62H18zM20,60H22V62H20zM24,60H26V62H24zM30,60H32V62H30zM40,60H42V62H40zM42,60H44V62H42zM44,60H46V62H44zM46,60H48V62H46zM50,60H52V62H50zM52,60H54V62H52zM54,60H56V62H54zM56,60H58V62H56zM60,60H62V62H60zM64,60H66V62H64zM66,60H68V62H66zM68,60H70V62H68zM8,62H10V64H8zM20,62H22V64H20zM26,62H28V64H26zM28,62H30V64H28zM30,62H32V64H30zM32,62H34V64H32zM34,62H36V64H34zM36,62H38V64H36zM40,62H42V64H40zM42,62H44V64H42zM46,62H48V64H46zM48,62H50V64H48zM54,62H56V64H54zM56,62H58V64H56zM64,62H66V64H64zM68,62H70V64H68zM70,62H72V64H70zM8,64H10V66H8zM12,64H14V66H12zM14,64H16V66H14zM16,64H18V66H16zM20,64H22V66H20zM24,64H26V66H24zM28,64H30V66H28zM30,64H32V66H30zM32,64H34V66H32zM34,64H36V66H34zM36,64H38V66H36zM38,64H40V66H38zM40,64H42V66H40zM50,64H52V66H50zM54,64H56V66H54zM56,64H58V66H56zM58,64H60V66H58zM60,64H62V66H60zM62,64H64V66H62zM64,64H66V66H64zM66,64H68V66H66zM70,64H72V66H70zM8,66H10V68H8zM12,66H14V68H12zM14,66H16V68H14zM16,66H18V68H16zM20,66H22V68H20zM24,66H26V68H24zM28,66H30V68H28zM30,66H32V68H30zM32,66H34V68H32zM34,66H36V68H34zM36,66H38V68H36zM38,66H40V68H38zM42,66H44V68H42zM44,66H46V68H44zM48,66H50V68H48zM50,66H52V68H50zM56,66H58V68H56zM58,66H60V68H58zM62,66H64V68H62zM70,66H72V68H70zM8,68H10V70H8zM12,68H14V70H12zM14,68H16V70H14zM16,68H18V70H16zM20,68H22V70H20zM26,68H28V70H26zM34,68H36V70H34zM36,68H38V70H36zM42,68H44V70H42zM46,68H48V70H46zM48,68H50V70H48zM52,68H54V70H52zM54,68H56V70H54zM56,68H58V70H56zM64,68H66V70H64zM70,68H72V70H70zM72,68H74V70H72zM8,70H10V72H8zM20,70H22V72H20zM26,70H28V72H26zM28,70H30V72H28zM40,70H42V72H40zM44,70H46V72H44zM46,70H48V72H46zM52,70H54V72H52zM68,70H70V72H68zM70,70H72V72H70zM72,70H74V72H72zM8,72H10V74H8zM10,72H12V74H10zM12,72H14V74H12zM14,72H16V74H14zM16,72H18V74H16zM18,72H20V74H18zM20,72H22V74H20zM26,72H28V74H26zM32,72H34V74H32zM36,72H38V74H36zM40,72H42V74H40zM44,72H46V74H44zM46,72H48V74H46zM54,72H56V74H54zM56,72H58V74H56zM58,72H60V74H58zM60,72H62V74H60zM64,72H66V74H64zM68,72H70V74H68z" id="qr-path" fill="#000000" fill-opacity="1" fill-rule="nonzero" stroke="none" /></svg>